<?xml version="1.0" encoding="UTF-8"?>
<!DOCTYPE svg PUBLIC "-//W3C//DTD SVG 1.1//EN" "http://www.w3.org/Graphics/SVG/1.1/DTD/svg11.dtd">
<!-- Creator: CorelDRAW X7 -->
<svg xmlns="http://www.w3.org/2000/svg" xml:space="preserve" width="0.793236in" height="0.298622in" version="1.1" style="shape-rendering:geometricPrecision; text-rendering:geometricPrecision; image-rendering:optimizeQuality; fill-rule:evenodd; clip-rule:evenodd"
viewBox="0 0 547 206"
 xmlns:xlink="http://www.w3.org/1999/xlink">
 <defs>
  <style type="text/css">
   <![CDATA[
    .fil0 {fill:#FEFEFE}
    .fil1 {fill:#BA35EA}
   ]]>
  </style>
 </defs>
 <g id="Layer_x0020_1">
  <metadata id="CorelCorpID_0Corel-Layer"/>
  <path class="fil0" d="M310 69l0 93 13 0c34,0 -20,-87 38,-73 6,26 4,42 4,73l24 0c0,-37 -6,-62 8,-72 12,-8 26,1 26,27l0 45c29,0 24,6 24,-52 0,-37 -24,-60 -69,-31 -9,-25 -34,-9 -41,-8 -6,0 -16,-2 -27,-2z"/>
  <path class="fil0" d="M120 117c0,-62 77,-17 45,17 -11,12 -45,12 -45,-17zm52 -45c-15,-3 -37,-16 -61,5 -27,24 -19,80 24,87 22,3 19,-10 39,-5l22 3 0 -121c0,-12 -7,-10 -24,-10l0 41z"/>
  <path class="fil0" d="M248 86l10 0c11,0 15,8 17,17l-48 0c4,-6 11,-17 21,-17zm-45 28c0,59 79,65 89,27 -9,-2 -7,-2 -13,-7 -23,15 -45,17 -52,-14l72 0c0,-82 -96,-62 -96,-6z"/>
  <path class="fil0" d="M482 162c0,34 -25,7 -25,34 0,11 6,11 16,9 23,-4 28,-25 38,-52l36 -84 -24 0 -24 62c-9,-7 -25,-48 -28,-62l-24 0c5,22 35,77 35,93z"/>
  <path class="fil0" d="M0 127c0,50 86,50 86,0l0 -58 -24 0c0,71 7,78 -34,69 -6,-26 -4,-39 -4,-69l-24 0 0 58z"/>
  <path class="fil1" d="M0 21l0 27c56,-30 33,-28 86,0l0 -27 -41 -21c-12,0 -30,17 -45,21z"/>
 </g>
</svg>
