<?xml version="1.0" encoding="UTF-8"?>
<!DOCTYPE svg PUBLIC "-//W3C//DTD SVG 1.1//EN" "http://www.w3.org/Graphics/SVG/1.1/DTD/svg11.dtd">
<!-- Creator: CorelDRAW X7 -->
<svg xmlns="http://www.w3.org/2000/svg" xml:space="preserve" width="5in" height="5in" version="1.1" style="shape-rendering:geometricPrecision; text-rendering:geometricPrecision; image-rendering:optimizeQuality; fill-rule:evenodd; clip-rule:evenodd"
viewBox="0 0 5000 5000"
 xmlns:xlink="http://www.w3.org/1999/xlink">
 <defs>
  <style type="text/css">
   <![CDATA[
    .fil0 {fill:#FEFEFE}
    .fil1 {fill:#BA35EA}
   ]]>
  </style>
 </defs>
 <g id="Layer_x0020_1">
  <metadata id="CorelCorpID_0Corel-Layer"/>
  <g id="_2428326341872">
   <path class="fil0" d="M2374 2429l0 135 20 0c48,0 -30,-125 55,-105 8,38 5,60 5,105l35 0c0,-53 -9,-90 11,-104 18,-11 38,1 38,39l0 65c43,0 35,8 35,-75 0,-54 -35,-88 -99,-45 -13,-36 -50,-13 -61,-12 -8,1 -22,-3 -39,-3z"/>
   <path class="fil0" d="M2099 2499c0,-89 112,-24 65,25 -16,17 -65,17 -65,-25zm75 -65c-21,-5 -54,-23 -88,7 -39,35 -27,116 35,126 32,5 28,-14 57,-6l31 3 0 -175c0,-18 -11,-15 -35,-15l0 60z"/>
   <path class="fil0" d="M2284 2454l15 0c15,0 22,13 25,25l-70 0c6,-9 16,-25 30,-25zm-65 40c0,86 115,96 130,40 -14,-3 -11,-2 -20,-10 -33,22 -65,24 -75,-20l105 0c0,-120 -140,-91 -140,-10z"/>
   <path class="fil0" d="M2623 2564c0,49 -35,11 -35,50 0,16 8,15 22,13 35,-6 41,-37 56,-75l52 -123 -35 0 -35 90c-13,-10 -35,-70 -40,-90l-35 0c8,32 50,112 50,135z"/>
   <path class="fil0" d="M1925 2514c0,73 124,72 124,0l0 -85 -34 0c0,103 10,114 -50,100 -9,-37 -5,-55 -5,-100l-35 0 0 85z"/>
   <path class="fil1" d="M1925 2359l0 40c81,-43 48,-40 124,0l0 -40 -59 -30c-17,0 -44,25 -65,30z"/>
  </g>
 </g>
</svg>
